<svg id="visual" viewBox="0 0 900 600" width="900" height="600" xmlns="http://www.w3.org/2000/svg" xmlns:xlink="http://www.w3.org/1999/xlink" version="1.1"><path d="M0 205L13.7 205C27.3 205 54.7 205 82 199C109.3 193 136.7 181 163.8 194C191 207 218 245 245.2 252C272.3 259 299.7 235 327 230C354.3 225 381.7 239 409 237C436.3 235 463.7 217 491 215C518.3 213 545.7 227 573 226C600.3 225 627.7 209 654.8 196C682 183 709 173 736.2 153C763.3 133 790.7 103 818 97C845.3 91 872.7 109 886.3 118L900 127L900 0L886.3 0C872.7 0 845.3 0 818 0C790.7 0 763.3 0 736.2 0C709 0 682 0 654.8 0C627.7 0 600.3 0 573 0C545.7 0 518.3 0 491 0C463.7 0 436.3 0 409 0C381.7 0 354.3 0 327 0C299.7 0 272.3 0 245.2 0C218 0 191 0 163.8 0C136.7 0 109.3 0 82 0C54.7 0 27.3 0 13.7 0L0 0Z" fill="#e0e4eb"></path><path d="M0 277L13.7 274C27.3 271 54.7 265 82 262C109.3 259 136.7 259 163.8 269C191 279 218 299 245.2 304C272.3 309 299.7 299 327 303C354.3 307 381.7 325 409 325C436.3 325 463.7 307 491 296C518.3 285 545.7 281 573 282C600.3 283 627.7 289 654.8 287C682 285 709 275 736.2 245C763.3 215 790.7 165 818 154C845.3 143 872.7 171 886.3 185L900 199L900 125L886.3 116C872.7 107 845.3 89 818 95C790.7 101 763.3 131 736.2 151C709 171 682 181 654.8 194C627.7 207 600.3 223 573 224C545.7 225 518.3 211 491 213C463.7 215 436.3 233 409 235C381.7 237 354.3 223 327 228C299.7 233 272.3 257 245.2 250C218 243 191 205 163.8 192C136.7 179 109.3 191 82 197C54.7 203 27.3 203 13.7 203L0 203Z" fill="#b0c7f4"></path><path d="M0 319L13.7 323C27.3 327 54.7 335 82 333C109.3 331 136.7 319 163.8 322C191 325 218 343 245.2 357C272.3 371 299.7 381 327 385C354.3 389 381.7 387 409 382C436.3 377 463.7 369 491 363C518.3 357 545.7 353 573 348C600.3 343 627.7 337 654.8 330C682 323 709 315 736.2 299C763.3 283 790.7 259 818 252C845.3 245 872.7 255 886.3 260L900 265L900 197L886.3 183C872.7 169 845.3 141 818 152C790.7 163 763.3 213 736.2 243C709 273 682 283 654.8 285C627.7 287 600.3 281 573 280C545.7 279 518.3 283 491 294C463.7 305 436.3 323 409 323C381.7 323 354.3 305 327 301C299.7 297 272.3 307 245.2 302C218 297 191 277 163.8 267C136.7 257 109.3 257 82 260C54.7 263 27.3 269 13.7 272L0 275Z" fill="#81a8fb"></path><path d="M0 445L13.7 444C27.3 443 54.7 441 82 446C109.3 451 136.7 463 163.8 477C191 491 218 507 245.2 517C272.3 527 299.7 531 327 530C354.3 529 381.7 523 409 515C436.3 507 463.7 497 491 484C518.3 471 545.7 455 573 448C600.3 441 627.7 443 654.8 445C682 447 709 449 736.2 451C763.3 453 790.7 455 818 460C845.3 465 872.7 473 886.3 477L900 481L900 263L886.3 258C872.7 253 845.3 243 818 250C790.7 257 763.3 281 736.2 297C709 313 682 321 654.8 328C627.7 335 600.3 341 573 346C545.7 351 518.3 355 491 361C463.7 367 436.3 375 409 380C381.7 385 354.3 387 327 383C299.7 379 272.3 369 245.2 355C218 341 191 323 163.8 320C136.7 317 109.3 329 82 331C54.7 333 27.3 325 13.7 321L0 317Z" fill="#5188ff"></path><path d="M0 601L13.7 601C27.3 601 54.7 601 82 601C109.3 601 136.7 601 163.8 601C191 601 218 601 245.2 601C272.3 601 299.7 601 327 601C354.3 601 381.7 601 409 601C436.3 601 463.7 601 491 601C518.3 601 545.7 601 573 601C600.3 601 627.7 601 654.8 601C682 601 709 601 736.2 601C763.3 601 790.7 601 818 601C845.3 601 872.7 601 886.3 601L900 601L900 479L886.3 475C872.7 471 845.3 463 818 458C790.7 453 763.3 451 736.2 449C709 447 682 445 654.8 443C627.7 441 600.3 439 573 446C545.7 453 518.3 469 491 482C463.7 495 436.3 505 409 513C381.7 521 354.3 527 327 528C299.7 529 272.3 525 245.2 515C218 505 191 489 163.8 475C136.7 461 109.3 449 82 444C54.7 439 27.3 441 13.7 442L0 443Z" fill="#0066ff"></path></svg>